<svg xmlns="http://www.w3.org/2000/svg" viewBox="0 0 200 200" width="192" height="192">
  <defs>
    <linearGradient id="ks-pwa-green" x1="20" y1="50" x2="80" y2="150" gradientUnits="userSpaceOnUse">
      <stop offset="0%" stop-color="#8cc63f" />
      <stop offset="100%" stop-color="#4d8b28" />
    </linearGradient>
    <linearGradient id="ks-pwa-orange" x1="120" y1="50" x2="180" y2="150" gradientUnits="userSpaceOnUse">
      <stop offset="0%" stop-color="#ff9800" />
      <stop offset="100%" stop-color="#e65100" />
    </linearGradient>
    <linearGradient id="ks-pwa-fridge" x1="78" y1="70" x2="122" y2="150" gradientUnits="userSpaceOnUse">
      <stop offset="0%" stop-color="#8cc63f" />
      <stop offset="45%" stop-color="#ff9800" />
      <stop offset="100%" stop-color="#d84315" />
    </linearGradient>
  </defs>
  <rect width="200" height="200" rx="44" fill="#0b132b" />
  <path d="M 32 70 L 60 70 L 78 110 L 60 150 L 32 150 L 52 110 Z" fill="url(#ks-pwa-green)" />
  <path d="M 168 70 L 140 70 L 122 110 L 140 150 L 168 150 L 148 110 Z" fill="url(#ks-pwa-orange)" />
  <rect x="78" y="72" width="44" height="78" rx="8" ry="8" stroke="url(#ks-pwa-fridge)" stroke-width="5" fill="none" />
  <line x1="78" y1="107" x2="122" y2="107" stroke="url(#ks-pwa-fridge)" stroke-width="4" />
  <rect x="84" y="88" width="3.5" height="12" rx="1.75" fill="#8cc63f" />
  <rect x="84" y="115" width="3.5" height="12" rx="1.75" fill="#8cc63f" />
  <path d="M 100 70 C 88 52 70 48 80 34 C 98 42 101 58 100 70 Z" fill="#8cc63f" />
  <path d="M 100 70 C 108 55 122 52 118 40 C 105 45 101 59 100 70 Z" fill="#8cc63f" />
  <path d="M 91 133 C 91 125 109 125 109 133" stroke="url(#ks-pwa-orange)" stroke-width="3" stroke-linecap="round" fill="none" />
  <path d="M 87 134 C 87 133 88 133 89 133 L 111 133 C 112 133 113 133 113 134 L 110 146 C 109.5 148 108 149 106 149 L 94 149 C 92 149 90.5 148 90 146 Z" fill="url(#ks-pwa-orange)" />
  <line x1="94" y1="137" x2="93" y2="145" stroke="#ffffff" stroke-width="2" stroke-linecap="round" />
  <line x1="98" y1="137" x2="97.5" y2="145" stroke="#ffffff" stroke-width="2" stroke-linecap="round" />
  <line x1="102" y1="137" x2="102.5" y2="145" stroke="#ffffff" stroke-width="2" stroke-linecap="round" />
  <line x1="106" y1="137" x2="107" y2="145" stroke="#ffffff" stroke-width="2" stroke-linecap="round" />
</svg>
